<?xml version="1.0" encoding="UTF-8" standalone="no"?>
<svg
   xmlns:dc="http://purl.org/dc/elements/1.1/"
   xmlns:cc="http://creativecommons.org/ns#"
   xmlns:rdf="http://www.w3.org/1999/02/22-rdf-syntax-ns#"
   xmlns:svg="http://www.w3.org/2000/svg"
   xmlns="http://www.w3.org/2000/svg"
   xmlns:sodipodi="http://sodipodi.sourceforge.net/DTD/sodipodi-0.dtd"
   xmlns:inkscape="http://www.inkscape.org/namespaces/inkscape"
   id="svg11"
   version="1.1"
   width="24"
   viewBox="0 0 24 24"
   height="24"
   fill="none"
   sodipodi:docname="10d.svg"
   inkscape:version="1.0 (4035a4fb49, 2020-05-01)">
  <sodipodi:namedview
     inkscape:document-rotation="0"
     pagecolor="#ffffff"
     bordercolor="#666666"
     borderopacity="1"
     objecttolerance="10"
     gridtolerance="10"
     guidetolerance="10"
     inkscape:pageopacity="0"
     inkscape:pageshadow="2"
     inkscape:window-width="1920"
     inkscape:window-height="1080"
     id="namedview13"
     showgrid="false"
     inkscape:zoom="15.6875"
     inkscape:cx="25.120775"
     inkscape:cy="14.739134"
     inkscape:window-x="0"
     inkscape:window-y="0"
     inkscape:window-maximized="0"
     inkscape:current-layer="g9" />
  <metadata
     id="metadata17">
    <rdf:RDF>
      <cc:Work
         rdf:about="">
        <dc:format>image/svg+xml</dc:format>
        <dc:type
           rdf:resource="http://purl.org/dc/dcmitype/StillImage" />
        <dc:title></dc:title>
      </cc:Work>
    </rdf:RDF>
  </metadata>
  <defs
     id="defs15" />
  <g
     transform="translate(0,-2.2106574)"
     id="g9">
    <path
       id="path5"
       fill="#999999"
       d="m 8.9169033,19.254474 c -0.6539846,0 -1.3060287,-0.148457 -1.8911218,-0.428874 -2.1686285,-1.040166 -3.0875061,-3.649312 -2.0473406,-5.818911 0.7209356,-1.503971 2.2675996,-2.476215 3.9384624,-2.476215 0.3590123,0 0.7141435,0.04366 1.0605418,0.131961 0.8752139,-2.6722155 3.3824779,-4.5080299 6.2235269,-4.5080299 1.75722,0.00194 3.400915,0.6850344 4.637081,1.9241121 1.235197,1.2390777 1.91538,2.8837418 1.912469,4.6331998 -0.0039,3.607588 -2.941961,6.541786 -6.54955,6.541786 z m 7.2947427,-1.455456 c 2.794474,0 5.080509,-2.283124 5.08342,-5.088272 0.0019,-1.360365 -0.526874,-2.640196 -1.487475,-3.603707 C 18.84699,8.1435275 17.56813,7.6127714 16.206794,7.6108308 c -2.449046,0 -4.553635,1.741695 -5.010648,4.1412552 0,0 -0.0029,0.01553 -0.0049,0.02135 -0.05919,0.295943 -0.09121,0.615172 -0.09218,0.932462 0,0.207645 0.01358,0.420141 0.03881,0.627786 0.0049,0.03881 0.0068,0.06889 0.0068,0.09897 0,0.365805 -0.273625,0.676302 -0.636519,0.721906 -0.03105,0.0039 -0.06113,0.0058 -0.09121,0.0058 -0.365805,0 -0.6753316,-0.273626 -0.7219062,-0.636519 -0.032944,-0.270695 -0.05041,-0.546261 -0.05041,-0.818917 9.703e-4,-0.204734 0.011644,-0.409468 0.03202,-0.612261 C 9.4253424,12.022801 9.1711228,11.9869 8.9169033,11.9869 c -1.1148789,0 -2.1453413,0.647192 -2.6256416,1.649516 -0.6927968,1.444782 -0.080535,3.183566 1.3642469,3.877333 0.3696857,0.177566 0.8082629,0.275566 1.2691571,0.285269 h 7.2724253 z"
       style="stroke-width:0.970304" />
    <path
       style="stroke-width:0.766516"
       id="path7"
       fill="#ffc700"
       d="m 4.7531103,11.052668 c -0.1954615,0 -0.3748262,-0.09735 -0.4813719,-0.260616 C 3.9475022,10.296117 3.7374768,9.7327275 3.6562261,9.1486425 H 1.8786759 c -0.3173375,0 -0.5748868,-0.2575493 -0.5748868,-0.5748868 0,-0.3173376 0.2575493,-0.574887 0.5748868,-0.574887 H 3.6623583 C 3.6738561,7.9168516 3.6868868,7.8402 3.7029836,7.7650814 3.8233266,7.1901946 4.0701448,6.6467348 4.4204424,6.1791602 L 3.1564579,4.9151755 C 3.0476126,4.8070968 2.9878243,4.6622253 2.9878243,4.5089221 c 0,-0.1533031 0.059788,-0.2981746 0.1686336,-0.4062533 0.1080787,-0.1088453 0.2529502,-0.1686335 0.4062533,-0.1686335 0.1533032,0 0.2981747,0.059788 0.4062534,0.1686335 L 5.2344823,5.3681864 C 5.3050017,5.3145303 5.3724551,5.2670064 5.4399085,5.2225484 5.9281791,4.9036778 6.480837,4.694419 7.0526578,4.6093357 V 2.8248868 C 7.0526578,2.5075493 7.3102071,2.25 7.6275447,2.25 c 0.3173375,0 0.5748869,0.2575493 0.5748869,0.5748868 v 1.7836824 c 0.093515,0.012265 0.1801312,0.026828 0.264448,0.044458 0.5672217,0.11881 1.1037827,0.3602625 1.5667584,0.7021285 L 11.286126,4.1026685 C 11.39497,3.9938232 11.539075,3.934035 11.692379,3.934035 c 0.153303,0 0.298174,0.059788 0.406253,0.1686335 0.108845,0.1080787 0.168634,0.2529502 0.168634,0.4062533 0,0.1533032 -0.05979,0.2981747 -0.168634,0.4062534 L 10.84921,6.1645964 c 0.05979,0.076651 0.111912,0.1510036 0.16097,0.2253556 0.03526,0.054422 0.06976,0.1096118 0.102712,0.1663339 0.07742,0.1326073 0.09888,0.2874435 0.05979,0.4361475 -0.03909,0.1487041 -0.133376,0.2728797 -0.265983,0.3502978 -0.08739,0.051356 -0.187796,0.078951 -0.289743,0.078951 -0.203894,0 -0.393989,-0.1088453 -0.496703,-0.2843774 C 10.096493,7.0974462 10.07273,7.0575873 10.046669,7.018495 9.626618,6.3753883 8.9819782,5.9346416 8.2300261,5.7775059 8.0337981,5.7368805 7.8337375,5.7161846 7.6344434,5.7161846 c -0.5549575,0 -1.0961176,0.1617348 -1.5659919,0.4691077 -0.6431068,0.4200506 -1.0838534,1.0646905 -1.2409891,1.8166425 -0.1579023,0.7511856 -0.013031,1.5192344 0.4070199,2.1623412 0.08355,0.128774 0.1126778,0.282078 0.08125,0.432314 -0.031427,0.150238 -0.1195764,0.279012 -0.248351,0.36333 -0.093515,0.06056 -0.2023602,0.09275 -0.3142716,0.09275 z" />
    <path
       id="path842"
       d="M 7.1973163,20.615993 5.9756604,22.392421 M 4.959523,23.924089 4.0643481,25.273425"
       style="fill:none;stroke:#1f7ce6;stroke-width:1.5;stroke-linecap:round;stroke-linejoin:miter;stroke-miterlimit:4;stroke-dasharray:none;stroke-opacity:1"
       sodipodi:nodetypes="cccc" />
    <path
       id="path846"
       d="M 9.073117,23.310459 7.7708485,25.273425"
       style="fill:none;stroke:#1f7ce6;stroke-width:1.5;stroke-linecap:round;stroke-linejoin:miter;stroke-miterlimit:4;stroke-dasharray:none;stroke-opacity:1"
       sodipodi:nodetypes="cc" />
    <path
       style="fill:none;stroke:#1f7ce6;stroke-width:1.5;stroke-linecap:round;stroke-linejoin:miter;stroke-miterlimit:4;stroke-dasharray:none;stroke-opacity:1"
       d="m 18.407827,20.703517 -1.851319,2.515006"
       id="path848"
       sodipodi:nodetypes="cc" />
    <path
       style="fill:none;stroke:#1f7ce6;stroke-width:1.5;stroke-linecap:round;stroke-linejoin:miter;stroke-miterlimit:4;stroke-dasharray:none;stroke-opacity:1"
       d="m 14.591269,20.726924 -1.22139,1.693809 m -1.127579,1.699648 -0.764951,1.153044"
       id="path850"
       sodipodi:nodetypes="cccc" />
    <path
       sodipodi:nodetypes="cc"
       style="fill:none;stroke:#1f7ce6;stroke-width:1.5;stroke-linecap:round;stroke-linejoin:miter;stroke-miterlimit:4;stroke-dasharray:none;stroke-opacity:1"
       d="m 10.921847,20.689443 -0.608133,0.916666"
       id="path838" />
    <path
       sodipodi:nodetypes="cc"
       id="path840"
       d="M 15.350743,24.876575 15.06348,25.243611"
       style="fill:none;stroke:#1f7ce6;stroke-width:1.5;stroke-linecap:round;stroke-linejoin:miter;stroke-miterlimit:4;stroke-dasharray:none;stroke-opacity:1" />
  </g>
</svg>
